<?xml version="1.0" encoding="utf-8"?>
<!-- License: PD. Made by Mary Akveo: https://maryakveo.com/ -->
<svg fill="#000000" width="800px" height="800px" viewBox="0 0 24 24" id="bill" data-name="Flat Line" xmlns="http://www.w3.org/2000/svg" class="icon flat-line"><path id="secondary" d="M19,4V21l-2.33-1-2.33,1L12,20,9.67,21,7.34,20,5,21V4A1,1,0,0,1,6,3H18A1,1,0,0,1,19,4Z" style="fill: rgb(44, 169, 188); stroke-width: 2;"></path><path id="primary" d="M15,11H9m4-4H9m6,8H9M18,3H6A1,1,0,0,0,5,4V21l2.34-1,2.33,1L12,20l2.33,1,2.33-1L19,21V4A1,1,0,0,0,18,3Z" style="fill: none; stroke: rgb(0, 0, 0); stroke-linecap: round; stroke-linejoin: round; stroke-width: 2;"></path></svg>